<svg width="80" height="80" viewBox="0 0 80 80" fill="none" xmlns="http://www.w3.org/2000/svg">
<path d="M70.9723 10.5049H9.39538V17.9056H20.5738V51.21H28.0261V17.9056H29.9823V51.21H70.971V21.606H59.7926L70.971 10.5049H70.9723ZM63.52 29.0067V43.8081H37.4358V17.9044H52.3404L41.1619 29.0054H63.5188L63.52 29.0067Z" fill="white"/>
<path d="M73.7707 8.20698V53.6141H18.5145V20.1838H7.22932V8.20698H73.7707ZM77 5H4V23.3908H15.2852V56.821H77V5Z" fill="#3FBFF0"/>
<path d="M29.7153 66.4494H32.1187V62.4703H23.3039V71.2253H24.9061V64.0614H30.5164V64.8582H25.7072L32.413 71.5164V71.5275L35.1952 74.2904H39.0443V72.6993H36.0088L29.7153 66.4494Z" fill="#3FBFF0"/>
<path d="M41.7358 71.2241V62.4703H32.9198V68.529L34.5233 70.1226V66.4494H40.1336V71.2241H41.7358ZM34.5233 64.0614H40.1336V64.857H34.5233V64.0614Z" fill="white"/>
<path d="M42.5381 71.2253H47.3473L51.3542 67.2462V62.4703H42.5381V71.2253ZM44.1416 64.0627H49.7519V66.4506L46.5462 69.6342H44.1416V64.0627Z" fill="white"/>
<path d="M53.7587 60.0342H52.1552V71.2253H53.7587V60.0342Z" fill="white"/>
<path d="M68.9863 64.857V66.4494H71.3897L65.7806 72.0209V64.0614H72.9932V62.4703H64.1771V76L75.3978 64.857H68.9863Z" fill="white"/>
<path d="M18.0599 60.0342V61.6266H20.4632V71.2241H22.0754V61.6266H51.3541V60.0342H18.0599Z" fill="#3FBFF0"/>
<path d="M73.0116 61.6266V60.0342H61.7636V68.4303L54.5598 61.2763V71.2253H56.162V65.2554L63.3758 72.4181V61.6266H73.0116Z" fill="white"/>
<path d="M59.3094 72.6992V74.2904H63.3746L61.7723 72.6992H59.3094Z" fill="#3FBFF0"/>
</svg>
